<svg xmlns="http://www.w3.org/2000/svg" width="512" height="512" viewBox="0 0 14 14" role="img" aria-label="bd_stat_vowifi">
  <path fill="#000000" d="M3.348,6.428c0.189,0,0.357-0.114,0.426-0.292l1.639-4.106c0.046-0.115,0.041-0.24-0.01-0.352 C5.352,1.566,5.262,1.482,5.15,1.441C5.102,1.423,5.049,1.412,4.994,1.412c-0.187,0-0.365,0.12-0.432,0.292L3.348,4.695L2.13,1.705 C2.065,1.533,1.887,1.414,1.697,1.414c-0.054,0-0.105,0.01-0.152,0.027C1.432,1.482,1.342,1.566,1.292,1.678 C1.24,1.789,1.236,1.913,1.279,2.028l1.642,4.108C2.989,6.311,3.161,6.428,3.348,6.428z M9.085,4.817c0,0.888-0.723,1.61-1.61,1.61 c-0.888,0-1.609-0.723-1.609-1.61V4.125c0-0.889,0.722-1.61,1.609-1.61c0.888,0,1.61,0.722,1.61,1.61V4.817z M8.185,4.125 c0-0.393-0.318-0.712-0.711-0.712c-0.393,0-0.713,0.319-0.713,0.712v0.693c0,0.392,0.32,0.713,0.713,0.713 c0.393,0,0.711-0.32,0.711-0.713V4.125z M9.665,8.059V9.41h1.451c0.232,0,0.406,0.174,0.406,0.406c0,0.232-0.174,0.406-0.406,0.406 H9.665v1.557c0,0.232-0.175,0.406-0.405,0.406c-0.233,0-0.407-0.174-0.407-0.406V7.652c0-0.232,0.175-0.406,0.407-0.406h1.973 c0.232,0,0.406,0.174,0.406,0.406c0,0.233-0.174,0.406-0.406,0.406H9.665z M7.924,9.162v2.617c0,0.232-0.174,0.406-0.406,0.406 c-0.232,0-0.406-0.174-0.406-0.406V9.104c0-0.232,0.175-0.406,0.406-0.406C7.75,8.756,7.924,8.93,7.924,9.162z M8.04,7.769 c0,0.289-0.232,0.522-0.522,0.522c-0.289,0-0.522-0.232-0.522-0.522c0-0.291,0.232-0.523,0.522-0.523 C7.808,7.305,8.04,7.537,8.04,7.769z M13.031,9.162v2.617c0,0.232-0.174,0.406-0.406,0.406c-0.232,0-0.405-0.174-0.405-0.406V9.104 c0-0.232,0.173-0.406,0.405-0.406C12.857,8.697,13.031,8.93,13.031,9.162z M12.103,7.769c0-0.291,0.232-0.523,0.522-0.523 c0.291,0,0.523,0.232,0.523,0.523c0,0.289-0.232,0.522-0.523,0.522C12.336,8.291,12.103,8.059,12.103,7.769z M4.964,12.131 c-0.174,0-0.347-0.11-0.347-0.275L3.92,9.549L3.165,11.91c-0.058,0.166-0.174,0.275-0.349,0.275c-0.173,0-0.348-0.109-0.405-0.275 L1.25,7.625c0-0.11,0-0.221,0.059-0.275C1.366,7.24,1.424,7.186,1.541,7.186c0.058,0,0.058,0,0.115,0 c0.174,0,0.348,0.109,0.406,0.274l0.754,2.747L3.514,7.9c0.059-0.166,0.175-0.275,0.348-0.275c0.174,0,0.349,0.109,0.349,0.275 l0.696,2.307L5.719,7.46c0.058-0.165,0.174-0.274,0.406-0.274c0.059,0,0.059,0,0.116,0c0.116,0,0.175,0.109,0.232,0.164 c0.059,0.11,0.059,0.165,0.059,0.275L5.371,11.91C5.312,12.021,5.196,12.131,4.964,12.131L4.964,12.131z"/>
</svg>
